<svg xmlns="http://www.w3.org/2000/svg" xmlns:xlink="http://www.w3.org/1999/xlink" version="1.1" x="0px" y="0px" viewBox="0 0 100 125" style="enable-background:new 0 0 100 100;" xml:space="preserve"><style type="text/css">
	.st0{fill:#231F20;}
</style><path class="st0" d="M29.2,95.5h41.6V4.5H29.2V95.5z M30.3,5.5h39.5v88.9H30.3V5.5z"/><rect x="33.8" y="9.2" class="st0" width="32.5" height="4.6"/><rect x="33.8" y="16.9" class="st0" width="32.5" height="4.6"/><rect x="33.8" y="24.6" class="st0" width="32.5" height="4.6"/><rect x="33.8" y="32.3" class="st0" width="32.5" height="4.6"/><rect x="33.8" y="40" class="st0" width="32.5" height="4.6"/><path class="st0" d="M33.8,52.3h32.5v-4.6H33.8V52.3z M34.8,48.7h30.5v2.6H34.8V48.7z"/><path class="st0" d="M33.8,60h32.5v-4.6H33.8V60z M34.8,56.4h30.5V59H34.8V56.4z"/><path class="st0" d="M33.8,67.7h32.5v-4.6H33.8V67.7z M34.8,64.1h30.5v2.6H34.8V64.1z"/><path class="st0" d="M33.8,75.4h32.5v-4.6H33.8V75.4z M34.8,71.9h30.5v2.6H34.8V71.9z"/><path class="st0" d="M33.8,83.1h32.5v-4.6H33.8V83.1z M34.8,79.6h30.5v2.6H34.8V79.6z"/><path class="st0" d="M33.8,90.8h32.5v-4.6H33.8V90.8z M34.8,87.3h30.5v2.6H34.8V87.3z"/><rect x="20.9" y="45.8" class="st0" width="1.5" height="1"/><rect x="48.5" y="45.8" class="st0" width="2.9" height="1"/><rect x="31.1" y="45.8" class="st0" width="2.9" height="1"/><rect x="71.8" y="45.8" class="st0" width="2.9" height="1"/><rect x="66" y="45.8" class="st0" width="2.9" height="1"/><rect x="25.3" y="45.8" class="st0" width="2.9" height="1"/><rect x="54.4" y="45.8" class="st0" width="2.9" height="1"/><rect x="60.2" y="45.8" class="st0" width="2.9" height="1"/><rect x="42.7" y="45.8" class="st0" width="2.9" height="1"/><rect x="36.9" y="45.8" class="st0" width="2.9" height="1"/><rect x="77.6" y="45.8" class="st0" width="1.5" height="1"/><text x="0" y="115" fill="#000000" font-size="5px" font-weight="bold" font-family="'Helvetica Neue', Helvetica, Arial-Unicode, Arial, Sans-serif">Created by Sharon Showalter</text><text x="0" y="120" fill="#000000" font-size="5px" font-weight="bold" font-family="'Helvetica Neue', Helvetica, Arial-Unicode, Arial, Sans-serif">from the Noun Project</text></svg>